<svg xmlns="http://www.w3.org/2000/svg" xmlns:xlink="http://www.w3.org/1999/xlink" version="1.1" width="40" height="40" viewBox="0 0 256 256" xml:space="preserve">

<defs>
</defs>
<g style="stroke: none; stroke-width: 0; stroke-dasharray: none; stroke-linecap: butt; stroke-linejoin: miter; stroke-miterlimit: 10; fill: none; fill-rule: nonzero; opacity: 1;" transform="translate(1.4065934065934016 1.4065934065934016) scale(2.81 2.81)" >
	<path d="M 45 0 C 20.147 0 0 20.147 0 45 c 0 9.574 2.999 18.442 8.095 25.736 L 0 90 l 19.264 -8.095 C 26.558 87.001 35.426 90 45 90 c 24.853 0 45 -20.147 45 -45 S 69.853 0 45 0 z" style="stroke: none; stroke-width: 1; stroke-dasharray: none; stroke-linecap: butt; stroke-linejoin: miter; stroke-miterlimit: 10; fill: rgb(66,195,252); fill-rule: nonzero; opacity: 1;" transform=" matrix(1 0 0 1 0 0) " stroke-linecap="round" />
	<path d="M 45 57.802 c -2.542 0 -4.602 -2.06 -4.602 -4.602 v -4.635 c 0 -1.266 0.522 -2.477 1.443 -3.347 l 8.237 -7.776 c 1.24 -1.307 1.924 -3.016 1.924 -4.821 v -0.309 c 0 -1.904 -0.751 -3.685 -2.115 -5.014 c -1.363 -1.329 -3.162 -2.03 -5.074 -1.984 c -3.757 0.097 -6.813 3.353 -6.813 7.259 c 0 2.542 -2.06 4.602 -4.602 4.602 s -4.602 -2.06 -4.602 -4.602 c 0 -8.852 7.079 -16.237 15.78 -16.461 c 4.416 -0.094 8.579 1.518 11.735 4.594 c 3.157 3.077 4.896 7.199 4.896 11.606 v 0.309 c 0 4.244 -1.63 8.258 -4.59 11.3 c -0.046 0.047 -0.092 0.092 -0.14 0.137 l -6.873 6.49 V 53.2 C 49.602 55.742 47.542 57.802 45 57.802 z" style="stroke: none; stroke-width: 1; stroke-dasharray: none; stroke-linecap: butt; stroke-linejoin: miter; stroke-miterlimit: 10; fill: rgb(255,255,255); fill-rule: nonzero; opacity: 1;" transform=" matrix(1 0 0 1 0 0) " stroke-linecap="round" />
	<path d="M 45 73.891 c -1.35 0 -2.659 -0.542 -3.62 -1.493 c -0.235 -0.236 -0.44 -0.501 -0.634 -0.788 c -0.184 -0.276 -0.338 -0.572 -0.47 -0.879 c -0.123 -0.308 -0.225 -0.624 -0.287 -0.952 c -0.071 -0.338 -0.102 -0.664 -0.102 -1.002 s 0.03 -0.665 0.102 -1.003 c 0.061 -0.327 0.164 -0.644 0.287 -0.951 c 0.133 -0.307 0.286 -0.613 0.47 -0.89 c 0.194 -0.276 0.399 -0.542 0.634 -0.767 c 1.186 -1.197 2.955 -1.739 4.623 -1.401 c 0.327 0.062 0.644 0.164 0.951 0.287 c 0.307 0.133 0.603 0.287 0.879 0.47 c 0.287 0.184 0.542 0.399 0.778 0.644 c 0.245 0.225 0.449 0.491 0.644 0.767 c 0.184 0.277 0.338 0.583 0.47 0.89 c 0.123 0.307 0.225 0.624 0.286 0.951 c 0.072 0.338 0.103 0.665 0.103 1.003 s -0.031 0.664 -0.103 1.002 c -0.061 0.328 -0.163 0.644 -0.286 0.952 c -0.133 0.307 -0.287 0.603 -0.47 0.879 c -0.195 0.287 -0.4 0.552 -0.644 0.788 c -0.236 0.235 -0.491 0.449 -0.778 0.634 c -0.276 0.184 -0.572 0.338 -0.879 0.47 c -0.308 0.123 -0.624 0.225 -0.951 0.286 C 45.664 73.86 45.337 73.891 45 73.891 z" style="stroke: none; stroke-width: 1; stroke-dasharray: none; stroke-linecap: butt; stroke-linejoin: miter; stroke-miterlimit: 10; fill: rgb(255,255,255); fill-rule: nonzero; opacity: 1;" transform=" matrix(1 0 0 1 0 0) " stroke-linecap="round" />
</g>
</svg>